<svg id="Layer_2" data-name="Layer 2" xmlns="http://www.w3.org/2000/svg" viewBox="0 0 111.53 140.27"><defs><style>.cls-1{fill:#d9d5c8;}.cls-2{fill:#0c0e14;}.cls-3{fill:#121528;}.cls-4{fill:#ccb959;}.cls-5{fill:#0c0e15;}.cls-6{fill-opacity:0.69;}.cls-10,.cls-7{fill:#eaae81;}.cls-7{stroke:#eaae81;stroke-miterlimit:10;stroke-width:0.1px;}.cls-8{fill:#ad1736;}.cls-9{fill:#7d9dd2;}.cls-11{fill:#283e5e;}.cls-12{fill:#4f75af;}.cls-13{fill:#1c2034;}.cls-14{fill:#21273a;}.cls-15{fill:#a8bce2;}.cls-16{fill:#d90d2b;}.cls-17{fill:#a01833;}.cls-18{fill:#fff;}.cls-19{fill:#e08292;}.cls-20{fill:#2c3245;}.cls-21{fill:#99643f;}.cls-22{fill:#d6966b;}.cls-23{fill:#e5c3ac;}</style></defs><ellipse class="cls-1" cx="55.77" cy="130.34" rx="55.77" ry="9.94"/><rect class="cls-2" x="55.22" width="1.36" height="29.59"/><polygon class="cls-1" points="65.58 36.96 47.8 36.96 0 130.26 111.53 130.34 65.58 36.96"/><polyline class="cls-3" points="46.35 38.03 47.77 38.32 51.13 38.6 55.91 38.88 60.68 38.6 63.8 38.35 65.45 38.03 46.35 38.03"/><ellipse class="cls-4" cx="55.9" cy="38.88" rx="2.14" ry="1.99"/><path class="cls-5" d="M310.62,342.62a5.67,5.67,0,0,0,.21-.81c0-4.22-4.37-7.63-9.76-7.63s-9.76,3.41-9.76,7.63a5.67,5.67,0,0,0,.21.81Z" transform="translate(-245.17 -304.59)"/><ellipse class="cls-6" cx="55.58" cy="125.55" rx="20.37" ry="6.52"/><polygon class="cls-7" points="40.45 119.03 46.57 119.03 46.57 112.37 43.51 112.37 42.35 112.85 41.48 113.53 40.83 114.46 40.45 115.7 40.45 119.03"/><rect class="cls-8" x="46.18" y="120.19" width="6.11" height="6.66"/><ellipse class="cls-9" cx="55.01" cy="83.11" rx="6.19" ry="6.36"/><path class="cls-10" d="M300.85,428h0c-14.64,0-14.64-6.57-14.64-17.79v-3.45c0-20.4,6.59-18.38,14.64-18.38h0c8,0,14.64-2,14.64,18.38v3.45C315.49,421.45,315.49,428,300.85,428Z" transform="translate(-245.17 -304.59)"/><path class="cls-11" d="M300.86,385.62c-12.43,0-22.51,3.5-22.51,7.81,0,2.54,3.7,4.68,9.07,6.11,2.18-8.37,7.44-7.26,13.55-7.26s11.35-1.12,13.54,7.21c5.26-1.43,8.85-3.56,8.85-6.06C323.36,389.12,313.29,385.62,300.86,385.62Z" transform="translate(-245.17 -304.59)"/><path class="cls-12" d="M300.18,388.34c-9.8,0-17.74,2.55-17.74,5.7,0,1.84,1.72,2.58,6,3.62,1.72-6.1,7.29-5.38,12.11-5.38s10.89-.59,13.36,5.26c4.15-1,4.06-1.68,4.06-3.5C317.93,390.89,310,388.34,300.18,388.34Z" transform="translate(-245.17 -304.59)"/><path class="cls-13" d="M312.91,398.35h-5.07v4.08h5.07c1.84,0,3.35,0,3.35-2C316.26,399.27,316.26,398.35,312.91,398.35Z" transform="translate(-245.17 -304.59)"/><rect class="cls-14" x="38.93" y="91.44" width="23.31" height="8.05" rx="3.95"/><path class="cls-13" d="M307.69,396h-5.07c1.84,0,3.34,1.81,3.34,4s-1.5,4-3.34,4h5.07c1.84,0,3.35-1.81,3.35-4S309.53,396,307.69,396Z" transform="translate(-245.17 -304.59)"/><ellipse class="cls-15" cx="43.91" cy="95.47" rx="2.8" ry="2.86"/><ellipse class="cls-15" cx="56" cy="95.47" rx="2.8" ry="2.86"/><path class="cls-16" d="M314.48,413.23H287c-1,0-1.88-1.29-1.88-2.87h0c0-1.58-.59-2.87,1.88-2.87h27.46c2.42,0,1.87,1.29,1.87,2.87h0C316.35,411.94,315.51,413.23,314.48,413.23Z" transform="translate(-245.17 -304.59)"/><path class="cls-16" d="M286.21,410.08v.15c0,11.22,0,17.79,14.64,17.79s14.64-6.57,14.64-17.79v-.15Z" transform="translate(-245.17 -304.59)"/><rect class="cls-17" x="55.01" y="113.35" width="6.26" height="0.74"/><rect class="cls-17" x="41.06" y="108.39" width="29.27" height="0.9"/><ellipse class="cls-18" cx="48.56" cy="115.7" rx="0.68" ry="0.82"/><ellipse class="cls-19" cx="44.58" cy="114.49" rx="0.68" ry="2.03"/><ellipse class="cls-18" cx="48.56" cy="113.27" rx="0.68" ry="0.82"/><path class="cls-20" d="M311,400.83h2.57v-1.29H311c-.93,0-1.69,0-1.69.65C309.27,400.54,309.27,400.83,311,400.83Z" transform="translate(-245.17 -304.59)"/><path class="cls-20" d="M313,399.54h-2.56v1.29H313c.93,0,1.7,0,1.7-.64C314.7,399.83,314.7,399.54,313,399.54Z" transform="translate(-245.17 -304.59)"/><rect class="cls-21" x="43.23" y="89.23" width="5.54" height="1.23" rx="0.02"/><rect class="cls-21" x="57.13" y="89.23" width="5.54" height="1.23" rx="0.02"/><rect class="cls-10" x="68.39" y="99.35" width="4.75" height="3.55" rx="0.07"/><ellipse class="cls-22" cx="71.54" cy="101.13" rx="0.78" ry="0.82"/><rect class="cls-16" x="59.18" y="120.19" width="6.11" height="6.66"/><path class="cls-23" d="M310.1,396.17c-1.19-.93-1.12-1.08-.83-1.62s.35-.68,1.55.25,1.12,1.06.84,1.6S311.3,397.09,310.1,396.17Z" transform="translate(-245.17 -304.59)"/><polygon class="cls-7" points="69.57 119.03 63.46 119.03 63.46 112.37 66.52 112.37 67.68 112.85 68.55 113.53 69.2 114.46 69.57 115.7 69.57 119.03"/><path class="cls-23" d="M310.74,420.78c0,1.72-.15,1.72-.67,1.72s-.66,0-.66-1.72.13-1.73.66-1.73S310.74,419.05,310.74,420.78Z" transform="translate(-245.17 -304.59)"/></svg>