<svg id="Layer_1" data-name="Layer 1" xmlns="http://www.w3.org/2000/svg" viewBox="0 0 215.35 57.3"><defs><style>.cls-1{fill:#2b2d42;}</style></defs><rect class="cls-1" x="83.52" y="2.02" width="12.35" height="13.87"/><path class="cls-1" d="M401.61,376.22c0-.43-.12.22-.35,2q-.5,3.31-.75,8.48-.36,5.85-.36,13.32,0,12.33,1,17.55a6.47,6.47,0,0,1,.09.72c0,.22-.22.35-.67.39-1,.1-4.95.14-11.68.14-1.59,0-2.5-.2-2.74-.62-.06-.76-.11-1.51-.17-2.27a.85.85,0,0,0-.36-.48,3.22,3.22,0,0,0-.66.36,21,21,0,0,1-11.91,3.16q-9.3,0-14.9-4.41a13,13,0,0,1-5.34-10.63,13.16,13.16,0,0,1,5.25-10.72q5.57-4.49,15-4.48,6.66,0,10.37,2.87a1.86,1.86,0,0,0,.88.48c.27,0,.4-.26.4-.78q0-2.29-.18-6.87t-.18-6.83c0-.58.24-.91.71-1q2.82-.09,7.76-.36,8.82-.74,7.81-.74C401.28,375.48,401.61,375.73,401.61,376.22ZM385,403.66a5.12,5.12,0,0,0-2.42-4.14,9.68,9.68,0,0,0-5.87-1.77,8.72,8.72,0,0,0-5.75,1.77,5.38,5.38,0,0,0-2.14,4.26,5,5,0,0,0,2.16,4.09,8.82,8.82,0,0,0,5.73,1.79,9.59,9.59,0,0,0,5.91-1.79A5.19,5.19,0,0,0,385,403.66Z" transform="translate(-186.26 -375.09)"/><path class="cls-1" d="M359.05,417.16q0,.81-1.23.93c-.83.08-3,.12-6.44.12q-5.56,0-6.88-.18c-.88-.12-1.32-.53-1.32-1.22,0-.94,0-2.35.13-4.24s.13-3.32.13-4.27q0-1.11-.09-3.3t-.09-3.3q0-4.09-5.24-4.09a10.29,10.29,0,0,0-4,1c-1.64.76-2.47,1.51-2.47,2.24V417c0,.66-.45,1-1.36,1.11s-3.14.12-6.31.12q-5.16,0-6.7-.18c-.92-.1-1.37-.43-1.37-1q0-2.32,0-7c0-3.13.05-5.47.05-7q0-7.43-1.72-11.67a1.48,1.48,0,0,1-.09-.45c0-.32.22-.53.66-.65q2.77-.21,7.41-.66c4.67-.62,7.31-.93,7.89-.93.33,0,.58.67.75,2s.43,2,.75,2q-.48,0,4.74-2.07a25.51,25.51,0,0,1,9.16-2.08,21.51,21.51,0,0,1,9.34,1.8c2.8,1.37,4.19,3.28,4.19,5.73v9.52c0,1.29,0,3.23.05,5.81S359.05,415.87,359.05,417.16Z" transform="translate(-186.26 -375.09)"/><path class="cls-1" d="M326.5,390.87q0,2.2-.31,6.62t-.31,6.63q0,2.14.22,6.45t.22,6.42c0,.54-.37.88-1.1,1a51.39,51.39,0,0,1-7.1.3c-3.2,0-5.44-.06-6.7-.18a1.11,1.11,0,0,1-1.06-.71l-.27-1.79c-.14-.92-.35-1.38-.61-1.38q.61,0-4.46,2a24.92,24.92,0,0,1-9.22,2q-11.69,0-13.84-7.13a36.17,36.17,0,0,1-1-9.62c0-4.53.54-8.12,1.63-10.74a1.79,1.79,0,0,1,1.81-1.23l6.17,0,6.17,0c.92,0,1.37.26,1.37.78a3.31,3.31,0,0,1-.09.63,37.3,37.3,0,0,0-.92,8.24,34.36,34.36,0,0,0,.48,7.1q.79,3.28,5.78,3.28a9.25,9.25,0,0,0,4.21-1.16c1.52-.78,2.3-1.58,2.36-2.42s.09-5.73.09-15c0-.66.07-1.05.22-1.17s.71-.3,1.59-.3l6.5,0,6.51,0c.88,0,1.39.15,1.54.45A2.17,2.17,0,0,1,326.5,390.87Z" transform="translate(-186.26 -375.09)"/><path class="cls-1" d="M273,401.13c0,3.86-.17,6.21-.53,7q-.66,1.5-9.65,10.81c-.95,1-3.37,3.23-7.28,6.78q-6.48,5.85-7.37,6.18-1.05.45-13.54.44a7.44,7.44,0,0,1-2.55-.29c-.39-.82-.87-1.79-1.46-2.9-.47-.7-.94-1.4-1.41-2.12a5.27,5.27,0,0,1-1-2.06q0-.57.75-.57,12.25,0,12.26-3.79,0-.33-6-5.94-6.22-5.76-6.84-7.28-.34-.87-.35-6.18,0-1.08.09-3.24t.09-3.24c0-.52.48-.78,1.45-.78q2.25,0,6.81.09t6.82.09a.81.81,0,0,1,.92.93c0,.55,0,1.4-.13,2.52s-.13,2-.13,2.52a46.65,46.65,0,0,0,.18,5.11c.08.69,1,2,2.64,3.88s3,2.95,3.84,2.95,1.82-1,3.44-2.92,2.31-3.1,2.42-3.73a34,34,0,0,0,.45-5.71,20.07,20.07,0,0,0-.23-2.44,21.92,21.92,0,0,1-.22-2.48q0-.57.93-.57,2.25,0,6.73-.12t6.72-.12a1.58,1.58,0,0,1,1.55.78Q273,396.14,273,401.13Z" transform="translate(-186.26 -375.09)"/><path class="cls-1" d="M237,399.24a10.17,10.17,0,0,0-4.86-3.79Q231,395,231,394.79a10.12,10.12,0,0,0,1.63-1.13,17.9,17.9,0,0,0,3-2.81,6.07,6.07,0,0,0,1.59-3.73q0-6.75-6.84-9.58-5.16-2.13-16-2.39-2.39-.06-16.45-.06-8.78,0-10.21.12c-.95.08-1.42.31-1.39.68l0,.42q.35,4.9.48,7.35.54,9.55.53,13,0,3.22-.55,9.71t-.55,9.67c0,.5.43.8,1.28.92q3.09.45,19.36.45H210l3.18,0q14.5,0,20.28-4.15,5.07-3.62,5.07-9.1A8.71,8.71,0,0,0,237,399.24Zm-33.06-13.51a15,15,0,0,0,.16-1.72c0-.31,1.58-.47,4.76-.47a37.66,37.66,0,0,1,7,.45c2.53.55,3.79,1.69,3.79,3.4q0,3.67-9.48,3.67c-3.41,0-5.28-.09-5.6-.27-.5-.24-.75-1.35-.75-3.34A14.68,14.68,0,0,1,203.92,385.73Zm13.78,21.81a30,30,0,0,1-6.7.51q-5.77,0-6.35-.38c-.38-.24-.57-1.54-.57-3.89s.16-3.47.48-3.66,2.38-.28,6.18-.28a28,28,0,0,1,6.88.6c2.2.63,3.3,1.85,3.3,3.64S219.85,407,217.7,407.54Z" transform="translate(-186.26 -375.09)"/><path class="cls-1" d="M285.27,376.75c.05-.42-.28-.63-1-.63H268.51c-.77,0-1.15.22-1.15.65a2.1,2.1,0,0,0,.09.51,64.42,64.42,0,0,1,1.1,11.38c0-.5,0,1.06,0,4.66,1.75,0,3.16-.06,4.2-.06a1.64,1.64,0,0,1,1.61.8q.65,1.41.64,6.56,0,6-.55,7.27t-6.08,7v2.35c.09.44.46.7,1.1.8a55.8,55.8,0,0,0,6.75.24,70.4,70.4,0,0,0,7.15-.24c.73-.08,1.1-.32,1.1-.74s-.05-1.35-.13-2.36-.14-1.9-.14-2.36q-.09-4.37-.09-12.51,0-9.91,1.15-22.81Zm-8.95,12.49a5.7,5.7,0,1,1,5.7-5.7A5.7,5.7,0,0,1,276.32,389.24Z" transform="translate(-186.26 -375.09)"/></svg>