<svg id="Layer_2" data-name="Layer 2" xmlns="http://www.w3.org/2000/svg" viewBox="0 0 111.81 136.68"><defs><style>.cls-1{fill:#0c0e14;}.cls-2{fill:#d9d5c8;}.cls-3,.cls-6{fill:#eaae81;}.cls-3{stroke:#eaae81;stroke-miterlimit:10;stroke-width:0.1px;}.cls-4{fill:#ad1736;}.cls-5{fill:#7d9dd2;}.cls-7{fill:#283e5e;}.cls-8{fill:#4f75af;}.cls-9{fill:#1c2034;}.cls-10{fill:#21273a;}.cls-11{fill:#a8bce2;}.cls-12{fill:#d90d2b;}.cls-13{fill:#a01833;}.cls-14{fill:#fff;}.cls-15{fill:#e08292;}.cls-16{fill:#2c3245;}.cls-17{fill:#99643f;}.cls-18{fill:#d6966b;}.cls-19{fill:#e5c3ac;}.cls-20{fill:#121528;}.cls-21{fill:#ccb959;}.cls-22{fill:#0c0e15;}</style></defs><rect class="cls-1" x="56.24" width="1.36" height="29.59"/><polygon class="cls-2" points="57.6 19.33 57.01 18.06 56.4 19.33 57.6 19.33"/><polygon class="cls-2" points="65.74 36.96 47.92 36.96 0 136.6 111.81 136.68 65.74 36.96"/><polygon class="cls-3" points="39.23 113.29 45.34 113.29 45.34 106.63 42.29 106.63 41.12 107.11 40.25 107.79 39.6 108.72 39.23 109.96 39.23 113.29"/><rect class="cls-4" x="44.95" y="114.45" width="6.11" height="6.66"/><ellipse class="cls-5" cx="53.79" cy="77.37" rx="6.19" ry="6.36"/><path class="cls-6" d="M298.61,426.28h0c-14.64,0-14.64-6.57-14.64-17.79V405c0-20.41,6.59-18.38,14.64-18.38h0c8.06,0,14.65-2,14.65,18.38v3.45C313.26,419.71,313.26,426.28,298.61,426.28Z" transform="translate(-244.15 -308.59)"/><path class="cls-7" d="M298.62,383.88c-12.43,0-22.5,3.5-22.5,7.81,0,2.53,3.69,4.68,9.06,6.11,2.18-8.38,7.44-7.26,13.55-7.26s11.35-1.12,13.54,7.21c5.26-1.43,8.86-3.56,8.86-6.06C321.13,387.38,311.05,383.88,298.62,383.88Z" transform="translate(-244.15 -308.59)"/><path class="cls-8" d="M297.94,386.6c-9.8,0-17.74,2.55-17.74,5.7,0,1.84,1.72,2.58,6,3.62,1.72-6.1,7.29-5.38,12.12-5.38s10.88-.59,13.36,5.26c4.14-1,4.05-1.68,4.05-3.5C315.69,389.15,307.74,386.6,297.94,386.6Z" transform="translate(-244.15 -308.59)"/><path class="cls-9" d="M310.67,396.61H305.6v4.07h5.07c1.84,0,3.35,0,3.35-2C314,397.53,314,396.61,310.67,396.61Z" transform="translate(-244.15 -308.59)"/><path class="cls-9" d="M305.46,394.3h-5.08c1.84,0,3.35,1.81,3.35,4s-1.51,4-3.35,4h5.08c1.84,0,3.34-1.81,3.34-4S307.3,394.3,305.46,394.3Z" transform="translate(-244.15 -308.59)"/><rect class="cls-10" x="37.71" y="85.7" width="23.31" height="8.05" rx="0.15"/><ellipse class="cls-11" cx="42" cy="89.73" rx="2.8" ry="3.37"/><ellipse class="cls-11" cx="56.92" cy="89.73" rx="2.8" ry="3.37"/><path class="cls-12" d="M312.24,411.49H284.78c-1,0-1.88-1.29-1.88-2.87h0c0-1.58-.59-2.87,1.88-2.87h27.46c2.42,0,1.88,1.29,1.88,2.87h0C314.12,410.2,313.27,411.49,312.24,411.49Z" transform="translate(-244.15 -308.59)"/><path class="cls-12" d="M284,408.34v.15c0,11.22,0,17.79,14.64,17.79s14.65-6.57,14.65-17.79v-.15Z" transform="translate(-244.15 -308.59)"/><rect class="cls-13" x="53.79" y="107.61" width="6.26" height="0.74"/><rect class="cls-13" x="39.83" y="102.65" width="29.27" height="0.9"/><ellipse class="cls-14" cx="47.33" cy="109.96" rx="0.68" ry="0.82"/><ellipse class="cls-15" cx="43.36" cy="108.75" rx="0.68" ry="2.03"/><ellipse class="cls-14" cx="47.33" cy="107.53" rx="0.68" ry="0.82"/><path class="cls-16" d="M308.72,399.09h2.57V397.8h-2.57c-.93,0-1.69,0-1.69.65C307,398.8,307,399.09,308.72,399.09Z" transform="translate(-244.15 -308.59)"/><path class="cls-16" d="M310.76,397.8H308.2v1.29h2.56c.94,0,1.7,0,1.7-.64C312.46,398.09,312.46,397.8,310.76,397.8Z" transform="translate(-244.15 -308.59)"/><rect class="cls-17" x="42" y="83.49" width="5.54" height="1.23" rx="0.02"/><rect class="cls-17" x="55.9" y="83.49" width="5.54" height="1.23" rx="0.02"/><rect class="cls-6" x="67.16" y="93.61" width="4.75" height="3.55" rx="0.07"/><ellipse class="cls-18" cx="70.32" cy="95.39" rx="0.78" ry="0.82"/><rect class="cls-12" x="57.96" y="114.45" width="6.11" height="6.66"/><path class="cls-19" d="M307.87,394.42c-1.2-.92-1.12-1.07-.84-1.61s.35-.68,1.55.24,1.12,1.07.84,1.61S309.06,395.35,307.87,394.42Z" transform="translate(-244.15 -308.59)"/><polygon class="cls-3" points="68.35 113.29 62.24 113.29 62.24 106.63 65.29 106.63 66.46 107.11 67.32 107.79 67.98 108.72 68.35 109.96 68.35 113.29"/><path class="cls-19" d="M308.5,419c0,1.72-.15,1.72-.67,1.72s-.66,0-.66-1.72.13-1.73.66-1.73S308.5,417.31,308.5,419Z" transform="translate(-244.15 -308.59)"/><polyline class="cls-20" points="47.37 38.03 48.78 38.32 52.14 38.6 56.92 38.88 61.69 38.6 64.82 38.35 66.47 38.03 47.37 38.03"/><ellipse class="cls-21" cx="56.92" cy="38.88" rx="2.14" ry="1.99"/><path class="cls-22" d="M310.62,346.62a6,6,0,0,0,.21-.81c0-4.22-4.37-7.63-9.76-7.63s-9.76,3.41-9.76,7.63a6,6,0,0,0,.21.81Z" transform="translate(-244.15 -308.59)"/></svg>